<svg viewBox="0 0 32 32" fill="none" xmlns="http://www.w3.org/2000/svg">
    <g clip-path="url(#clip0_4541_32568)">
        <path d="M16 32C7.1634 32 0 24.8366 0 16C0 7.16344 7.1634 0 16 0C24.8366 0 32 7.16344 32 16C32 24.8366 24.8366 32 16 32Z" fill="#3233FF"/>
        <path fill-rule="evenodd" clip-rule="evenodd" d="M25.0156 10.7788L15.9884 5.87042L6.96125 10.7788V21.2351L15.9884 26.1477L25.0156 21.2351V10.7788ZM7.85949 11.8258V20.7013L15.5393 24.8806V20.6956L11.589 18.5258V13.9892L7.85949 11.8258ZM24.1174 20.7013L16.4375 24.8806V20.6955L20.3878 18.5258V13.9869L24.1174 11.8253V20.7013ZM23.6494 11.0584L19.9301 13.214L15.9884 11.0608L12.0448 13.2151L8.32714 11.0586L15.9884 6.89286L23.6494 11.0584ZM15.7637 16.0379L12.4873 17.7687V13.9969L15.7637 12.2071V16.0379ZM16.2128 16.0382V12.207L19.4895 13.9969V17.774L16.2128 16.0382ZM15.9881 16.4274L12.7492 18.1382L15.9884 19.9174L19.2226 18.1409L15.9881 16.4274Z" fill="white"/>
    </g>
    <defs>
        <clipPath id="clip0_4541_32568">
            <rect width="32" height="32" fill="white" transform="matrix(-1 0 0 1 32 0)"/>
        </clipPath>
    </defs>
</svg>
