<svg viewBox="0 0 197 373" fill="none" xmlns="http://www.w3.org/2000/svg">
    <path fill-rule="evenodd" clip-rule="evenodd" d="M111.482 61.411H125.293L138.804 34.5288L111.482 61.411Z" fill="#3D45FB"/>
    <path fill-rule="evenodd" clip-rule="evenodd" d="M111.504 61.5004L112.032 49.1458L137.577 35.8239L111.504 61.5004Z" fill="#3D45FB" fill-opacity="0.3"/>
    <path fill-rule="evenodd" clip-rule="evenodd" d="M155.046 18.4078L136.638 73.631L124.373 61.3655L137.18 36.2741L112.091 49.084L99.8229 36.8155L155.046 18.4078Z" fill="#949BFF"/>
    <path d="M116.321 66.0022C116.54 71.4946 118.481 77.3162 122.143 83.4669C137.445 102.841 171.73 126.43 161 168.526C151.167 207.106 87.3902 205.667 84.4029 184.346C82.2861 169.238 102.494 163.969 116.642 176.221C132.567 190.011 91.911 270.327 76.8612 284.378" stroke="#3D45FB" stroke-width="2.39813" stroke-dasharray="5.6 5.6"/>
    <g filter="url(#filter0_d_1_15)">
        <path d="M29.2591 327C29.2591 331.694 30.1836 336.341 31.9797 340.677L34.4886 339.638L31.9797 340.677C33.7759 345.014 36.4085 348.954 39.7274 352.273C43.0462 355.591 46.9863 358.224 51.3226 360.02C55.6588 361.816 60.3064 362.741 65 362.741C69.6936 362.741 74.3412 361.816 78.6774 360.02C83.0137 358.224 86.9538 355.591 90.2726 352.273C93.5915 348.954 96.2241 345.014 98.0202 340.677C99.8164 336.341 100.741 331.694 100.741 327C100.741 317.521 96.9753 308.43 90.2726 301.727C83.5699 295.025 74.4791 291.259 65 291.259C55.5209 291.259 46.4301 295.025 39.7274 301.727C33.0247 308.43 29.2591 317.521 29.2591 327Z" fill="#468EE7" stroke="white" stroke-width="5.48173"/>
        <path d="M64.9999 302.058C64.8982 302.058 64.8006 302.018 64.7286 301.946C64.6566 301.874 64.6162 301.776 64.6162 301.674V297.07C64.6162 296.968 64.6566 296.87 64.7286 296.798C64.8006 296.726 64.8982 296.686 64.9999 296.686C65.1017 296.686 65.1993 296.726 65.2713 296.798C65.3432 296.87 65.3837 296.968 65.3837 297.07V301.674C65.3837 301.776 65.3432 301.874 65.2713 301.946C65.1993 302.018 65.1017 302.058 64.9999 302.058ZM67.3752 299.859C67.2738 299.85 67.1801 299.801 67.1146 299.723C67.0491 299.645 67.0173 299.545 67.026 299.443L67.2263 297.149C67.2353 297.048 67.284 296.955 67.3618 296.889C67.4397 296.824 67.5402 296.792 67.6415 296.801C67.7428 296.81 67.8365 296.858 67.902 296.936C67.9675 297.014 67.9994 297.115 67.9907 297.216L67.7904 299.509C67.7816 299.611 67.7329 299.704 67.655 299.77C67.5772 299.835 67.4765 299.867 67.3752 299.859ZM69.3291 302.438C69.2794 302.429 69.232 302.411 69.1895 302.383C69.147 302.356 69.1103 302.321 69.0814 302.28C69.0526 302.238 69.0321 302.192 69.0213 302.143C69.0104 302.093 69.0094 302.042 69.0183 301.993L69.8195 297.457C69.8372 297.357 69.894 297.268 69.9773 297.21C70.0606 297.152 70.1637 297.129 70.2638 297.146C70.3135 297.155 70.3609 297.173 70.4034 297.201C70.4459 297.228 70.4827 297.263 70.5116 297.304C70.5406 297.345 70.5611 297.392 70.572 297.441C70.583 297.49 70.5841 297.541 70.5754 297.591L69.7742 302.126C69.7655 302.176 69.747 302.224 69.7199 302.266C69.6928 302.309 69.6576 302.346 69.6163 302.374C69.5749 302.403 69.5283 302.424 69.479 302.435C69.4297 302.446 69.3788 302.447 69.3291 302.438ZM72.0512 300.684C72.0024 300.671 71.9567 300.649 71.9167 300.618C71.8766 300.587 71.843 300.549 71.8178 300.505C71.7925 300.462 71.7762 300.413 71.7696 300.363C71.763 300.313 71.7664 300.263 71.7795 300.214L72.3758 297.99C72.3889 297.941 72.4114 297.895 72.4422 297.856C72.4729 297.816 72.5112 297.782 72.5549 297.757C72.5986 297.732 72.6468 297.715 72.6968 297.709C72.7468 297.702 72.7976 297.706 72.8463 297.719C72.8949 297.732 72.9406 297.755 72.9805 297.785C73.0205 297.816 73.054 297.854 73.0792 297.898C73.1044 297.942 73.1207 297.99 73.1272 298.04C73.1337 298.09 73.1303 298.141 73.1172 298.189L72.5209 300.413C72.5078 300.462 72.4852 300.508 72.4545 300.548C72.4238 300.588 72.3855 300.621 72.3418 300.646C72.2981 300.671 72.2499 300.688 72.1999 300.694C72.1499 300.701 72.0991 300.697 72.0504 300.684H72.0512ZM73.5308 303.562C73.4353 303.527 73.3575 303.456 73.3145 303.364C73.2715 303.272 73.2668 303.167 73.3013 303.071L74.8761 298.743C74.8934 298.696 74.9197 298.653 74.9538 298.615C74.9878 298.578 75.0289 298.548 75.0746 298.527C75.1202 298.505 75.1697 298.493 75.22 298.491C75.2704 298.489 75.3207 298.497 75.3681 298.514C75.4154 298.531 75.459 298.558 75.4961 298.592C75.5333 298.626 75.5634 298.667 75.5847 298.712C75.606 298.758 75.6181 298.807 75.6203 298.858C75.6225 298.908 75.6148 298.959 75.5975 299.006L74.0227 303.333C74.0055 303.38 73.9791 303.424 73.9451 303.461C73.911 303.498 73.87 303.528 73.8243 303.549C73.7786 303.571 73.7292 303.583 73.6788 303.585C73.6285 303.587 73.5782 303.579 73.5308 303.562ZM76.5139 302.308C76.4217 302.265 76.3504 302.187 76.3155 302.092C76.2807 301.996 76.2853 301.891 76.3281 301.799L77.3013 299.711C77.3444 299.619 77.4223 299.548 77.5178 299.513C77.6133 299.479 77.7187 299.483 77.8108 299.526C77.903 299.569 77.9743 299.647 78.0092 299.743C78.044 299.838 78.0394 299.944 77.9966 300.036L77.0234 302.123C76.9803 302.215 76.9024 302.286 76.8069 302.321C76.7114 302.356 76.606 302.351 76.5139 302.308ZM77.4709 305.399C77.3827 305.349 77.3184 305.265 77.2921 305.166C77.2657 305.068 77.2795 304.963 77.3304 304.875L79.6327 300.888C79.6836 300.8 79.7674 300.735 79.8657 300.709C79.964 300.683 80.0688 300.696 80.1569 300.747C80.245 300.798 80.3093 300.882 80.3357 300.98C80.362 301.079 80.3482 301.183 80.2973 301.271L77.995 305.259C77.9441 305.347 77.8603 305.411 77.762 305.438C77.6637 305.464 77.559 305.45 77.4709 305.399ZM80.6258 304.683C80.5845 304.654 80.5493 304.617 80.5223 304.574C80.4952 304.532 80.4768 304.484 80.4681 304.435C80.4594 304.385 80.4606 304.334 80.4716 304.285C80.4826 304.236 80.5032 304.189 80.5322 304.148L81.8537 302.262C81.9122 302.179 82.0013 302.122 82.1014 302.105C82.2016 302.087 82.3046 302.11 82.3879 302.169C82.471 302.227 82.5276 302.316 82.5452 302.416C82.5627 302.516 82.5398 302.619 82.4815 302.703L81.16 304.588C81.1015 304.671 81.0124 304.728 80.9123 304.746C80.8121 304.763 80.7091 304.74 80.6258 304.682V304.683ZM81.0318 307.893C80.9541 307.827 80.9056 307.734 80.897 307.632C80.8884 307.531 80.9203 307.43 80.9857 307.353L83.945 303.825C84.0104 303.748 84.104 303.699 84.2053 303.69C84.3066 303.681 84.4073 303.713 84.4853 303.778C84.5632 303.843 84.612 303.937 84.6209 304.038C84.6298 304.139 84.5981 304.24 84.5329 304.318L81.5728 307.846C81.5074 307.924 81.4137 307.972 81.3124 307.981C81.2111 307.99 81.1104 307.958 81.0326 307.893H81.0318ZM84.2643 307.736C84.1923 307.664 84.1519 307.566 84.1519 307.464C84.1519 307.363 84.1923 307.265 84.2643 307.193L85.892 305.564C85.9276 305.529 85.97 305.5 86.0166 305.481C86.0632 305.462 86.1132 305.452 86.1637 305.452C86.2141 305.452 86.2641 305.462 86.3107 305.481C86.3574 305.5 86.3997 305.529 86.4353 305.564C86.4711 305.6 86.4994 305.642 86.5188 305.689C86.5381 305.736 86.5481 305.786 86.5481 305.836C86.5481 305.887 86.5381 305.937 86.5188 305.983C86.4994 306.03 86.4711 306.072 86.4353 306.108L84.8068 307.735C84.7349 307.807 84.6373 307.847 84.5355 307.847C84.4338 307.847 84.3362 307.807 84.2643 307.735V307.736ZM87.3171 311.375C87.2589 311.291 87.2361 311.188 87.2538 311.088C87.2715 310.988 87.3282 310.899 87.4115 310.841L89.2971 309.519C89.3804 309.461 89.4834 309.438 89.5836 309.455C89.6837 309.473 89.7728 309.53 89.8313 309.613C89.8896 309.696 89.9125 309.799 89.895 309.899C89.8774 309.999 89.8208 310.088 89.7377 310.147L87.852 311.468C87.7688 311.527 87.6658 311.55 87.5656 311.532C87.4655 311.515 87.3764 311.458 87.3179 311.375H87.3171ZM86.6003 314.529C86.5495 314.441 86.5357 314.336 86.562 314.238C86.5884 314.139 86.6527 314.056 86.7408 314.005L90.7284 311.702C90.8166 311.652 90.9213 311.638 91.0196 311.664C91.1179 311.69 91.2017 311.755 91.2526 311.843C91.3035 311.931 91.3173 312.036 91.2909 312.134C91.2646 312.232 91.2003 312.316 91.1121 312.367L87.1245 314.669C87.0364 314.72 86.9316 314.734 86.8333 314.708C86.735 314.681 86.6512 314.617 86.6003 314.529ZM89.6916 315.486C89.6487 315.394 89.6442 315.288 89.679 315.193C89.7138 315.097 89.7852 315.019 89.8773 314.976L91.964 314.003C92.0562 313.96 92.1617 313.956 92.2572 313.991C92.3528 314.025 92.4306 314.097 92.4736 314.189C92.5165 314.281 92.521 314.387 92.4862 314.482C92.4514 314.578 92.38 314.656 92.2879 314.699L90.2012 315.672C90.109 315.715 90.0035 315.719 89.908 315.684C89.8124 315.649 89.7346 315.578 89.6916 315.486ZM88.4376 318.469C88.403 318.373 88.4077 318.268 88.4508 318.176C88.4938 318.084 88.5716 318.013 88.6671 317.978L92.9939 316.402C93.0895 316.368 93.1949 316.372 93.2869 316.415C93.379 316.458 93.4503 316.536 93.4851 316.632C93.5197 316.727 93.5151 316.833 93.4722 316.925C93.4293 317.017 93.3517 317.088 93.2564 317.123L88.9295 318.698C88.8822 318.716 88.8319 318.723 88.7815 318.721C88.7311 318.719 88.6817 318.707 88.636 318.686C88.5903 318.664 88.5493 318.634 88.5153 318.597C88.4812 318.56 88.4548 318.516 88.4376 318.469ZM91.3155 319.949C91.3024 319.901 91.299 319.85 91.3056 319.8C91.3122 319.75 91.3285 319.702 91.3538 319.658C91.379 319.614 91.4126 319.576 91.4527 319.545C91.4927 319.514 91.5384 319.492 91.5872 319.479L93.8112 318.883C93.9094 318.856 94.0141 318.87 94.1021 318.921C94.1902 318.972 94.2545 319.055 94.2809 319.154C94.294 319.202 94.2974 319.253 94.2909 319.303C94.2844 319.353 94.2681 319.401 94.2429 319.445C94.2178 319.489 94.1843 319.527 94.1443 319.558C94.1043 319.588 94.0587 319.611 94.01 319.624L91.786 320.22C91.7373 320.233 91.6865 320.237 91.6365 320.23C91.5865 320.224 91.5383 320.207 91.4946 320.182C91.4509 320.157 91.4126 320.124 91.3819 320.084C91.3511 320.044 91.3286 319.998 91.3155 319.949ZM89.5619 322.671C89.5531 322.621 89.5541 322.57 89.5649 322.521C89.5758 322.472 89.5962 322.425 89.6251 322.384C89.6539 322.342 89.6907 322.307 89.7332 322.28C89.7757 322.253 89.8231 322.234 89.8727 322.226L94.4083 321.425C94.4579 321.416 94.5088 321.417 94.5581 321.428C94.6073 321.439 94.6539 321.459 94.6953 321.488C94.7366 321.517 94.7719 321.554 94.799 321.596C94.8261 321.639 94.8446 321.686 94.8534 321.736C94.8622 321.786 94.8612 321.837 94.8503 321.886C94.8394 321.935 94.8189 321.982 94.79 322.023C94.761 322.065 94.7242 322.1 94.6816 322.127C94.6391 322.154 94.5916 322.172 94.5418 322.181L90.0063 322.982C89.9566 322.99 89.9057 322.989 89.8565 322.979C89.8072 322.968 89.7606 322.947 89.7193 322.918C89.6779 322.89 89.6427 322.853 89.6156 322.81C89.5884 322.768 89.5699 322.72 89.5611 322.671H89.5619Z" fill="white"/>
        <path d="M92.1413 324.625C92.1326 324.523 92.1645 324.423 92.2299 324.345C92.2954 324.267 92.3891 324.218 92.4905 324.209L94.7836 324.009C94.8848 324 94.9854 324.032 95.0632 324.098C95.1411 324.163 95.1898 324.256 95.1988 324.358C95.2077 324.459 95.1761 324.56 95.1107 324.638C95.0454 324.716 94.9517 324.765 94.8504 324.774L92.5573 324.974C92.507 324.978 92.4564 324.973 92.4083 324.958C92.3602 324.942 92.3155 324.918 92.2769 324.885C92.2383 324.853 92.2064 324.813 92.1831 324.769C92.1599 324.724 92.1457 324.675 92.1413 324.625Z" fill="white"/>
        <path d="M89.9418 327C89.9418 326.898 89.9822 326.801 90.0542 326.729C90.1262 326.657 90.2238 326.616 90.3255 326.616H94.9302C95.0319 326.616 95.1295 326.657 95.2015 326.729C95.2735 326.801 95.3139 326.898 95.3139 327C95.3139 327.102 95.2735 327.199 95.2015 327.271C95.1295 327.343 95.0319 327.384 94.9302 327.384H90.3255C90.2238 327.384 90.1262 327.343 90.0542 327.271C89.9822 327.199 89.9418 327.102 89.9418 327ZM92.1405 329.374C92.1449 329.324 92.1591 329.275 92.1823 329.23C92.2056 329.186 92.2375 329.146 92.2761 329.114C92.3147 329.081 92.3594 329.057 92.4075 329.041C92.4556 329.026 92.5062 329.021 92.5565 329.025L94.8504 329.226C94.9517 329.235 95.0454 329.284 95.1107 329.362C95.176 329.44 95.2077 329.541 95.1988 329.642C95.1898 329.744 95.141 329.837 95.063 329.903C94.9849 329.968 94.8842 330 94.7828 329.991L92.4897 329.79C92.4395 329.786 92.3905 329.772 92.3458 329.749C92.301 329.725 92.2613 329.693 92.2289 329.655C92.1964 329.616 92.1719 329.571 92.1568 329.523C92.1416 329.475 92.1361 329.425 92.1405 329.374ZM89.5627 331.331C89.5805 331.23 89.6372 331.142 89.7206 331.083C89.8039 331.025 89.9069 331.002 90.007 331.02L94.5418 331.819C94.642 331.837 94.7309 331.894 94.7892 331.977C94.8475 332.061 94.8703 332.164 94.8527 332.264C94.8349 332.364 94.7781 332.453 94.6948 332.511C94.6115 332.569 94.5084 332.592 94.4083 332.575L89.8735 331.776C89.8239 331.767 89.7764 331.748 89.7339 331.721C89.6914 331.694 89.6547 331.659 89.6258 331.618C89.597 331.576 89.5765 331.53 89.5657 331.48C89.5549 331.431 89.5538 331.38 89.5627 331.331ZM91.3155 334.051C91.3286 334.003 91.3512 333.957 91.3819 333.917C91.4126 333.877 91.4509 333.843 91.4946 333.818C91.5383 333.793 91.5865 333.777 91.6365 333.77C91.6865 333.764 91.7373 333.767 91.786 333.78L94.0092 334.376C94.1075 334.402 94.1914 334.466 94.2423 334.554C94.2933 334.642 94.3072 334.747 94.2809 334.845C94.2546 334.944 94.1904 335.028 94.1023 335.079C94.0143 335.13 93.9095 335.143 93.8112 335.117L91.5872 334.522C91.5384 334.509 91.4927 334.486 91.4527 334.455C91.4126 334.425 91.379 334.386 91.3538 334.343C91.3285 334.299 91.3122 334.251 91.3056 334.201C91.299 334.151 91.3024 334.1 91.3155 334.051ZM88.4376 335.531C88.4724 335.435 88.5437 335.358 88.6357 335.315C88.7278 335.271 88.8332 335.267 88.9288 335.301L93.2564 336.876C93.3038 336.893 93.3473 336.92 93.3845 336.954C93.4216 336.988 93.4517 337.029 93.473 337.075C93.4943 337.12 93.5064 337.17 93.5086 337.22C93.5108 337.27 93.5031 337.321 93.4858 337.368C93.4686 337.415 93.4422 337.459 93.4082 337.496C93.3741 337.533 93.3331 337.563 93.2874 337.585C93.2417 337.606 93.1923 337.618 93.1419 337.62C93.0916 337.623 93.0413 337.615 92.9939 337.598L88.6671 336.023C88.6197 336.006 88.5762 335.979 88.539 335.945C88.5018 335.911 88.4717 335.87 88.4504 335.824C88.4291 335.779 88.417 335.729 88.4148 335.679C88.4126 335.628 88.4204 335.578 88.4376 335.531ZM89.6916 338.514C89.7346 338.422 89.8124 338.35 89.908 338.316C90.0035 338.281 90.109 338.285 90.2012 338.328L92.2886 339.301C92.3807 339.344 92.4518 339.422 92.4865 339.518C92.5212 339.613 92.5165 339.719 92.4736 339.811C92.4306 339.903 92.3528 339.974 92.2572 340.009C92.1617 340.044 92.0562 340.039 91.964 339.997L89.8766 339.023C89.7845 338.98 89.7134 338.902 89.6787 338.807C89.644 338.711 89.6487 338.606 89.6916 338.514ZM86.6004 339.471C86.6512 339.383 86.7351 339.318 86.8334 339.292C86.9317 339.266 87.0364 339.28 87.1245 339.33L91.1122 341.633C91.2003 341.684 91.2646 341.767 91.2909 341.866C91.3173 341.964 91.3035 342.069 91.2526 342.157C91.2017 342.245 91.1179 342.309 91.0196 342.336C90.9213 342.362 90.8166 342.348 90.7284 342.297L86.7408 339.995C86.6527 339.944 86.5884 339.86 86.562 339.762C86.5357 339.664 86.5495 339.559 86.6004 339.471ZM87.3171 342.625C87.3461 342.584 87.3829 342.549 87.4255 342.522C87.468 342.494 87.5155 342.476 87.5652 342.467C87.6149 342.459 87.6658 342.46 87.715 342.471C87.7642 342.482 87.8108 342.502 87.8521 342.531L89.7377 343.853C89.8209 343.911 89.8774 344.001 89.895 344.101C89.9125 344.201 89.8896 344.304 89.8313 344.387C89.7728 344.47 89.6837 344.527 89.5836 344.544C89.4834 344.562 89.3804 344.539 89.2972 344.481L87.4115 343.16C87.3702 343.131 87.3351 343.094 87.308 343.052C87.2809 343.009 87.2625 342.962 87.2538 342.912C87.2451 342.862 87.2463 342.811 87.2573 342.762C87.2683 342.713 87.2889 342.666 87.3179 342.625H87.3171Z" fill="white"/>
        <path d="M84.1069 343.032C84.1725 342.954 84.2662 342.906 84.3675 342.897C84.4688 342.888 84.5694 342.92 84.6472 342.986L88.1743 345.945C88.2523 346.01 88.301 346.104 88.3099 346.205C88.3189 346.307 88.2872 346.407 88.2219 346.485C88.1566 346.563 88.0629 346.612 87.9616 346.621C87.8603 346.63 87.7596 346.598 87.6816 346.533L84.1537 343.573C84.0759 343.507 84.0273 343.414 84.0185 343.312C84.0097 343.211 84.0415 343.11 84.1069 343.033V343.032Z" fill="white"/>
        <path d="M84.2643 346.264C84.3362 346.192 84.4338 346.152 84.5356 346.152C84.6373 346.152 84.7349 346.192 84.8068 346.264L86.4354 347.892C86.4711 347.928 86.4994 347.97 86.5188 348.017C86.5381 348.063 86.5481 348.113 86.5481 348.164C86.5481 348.214 86.5381 348.264 86.5188 348.311C86.4994 348.357 86.4711 348.4 86.4354 348.435C86.3997 348.471 86.3574 348.499 86.3107 348.519C86.2641 348.538 86.2142 348.548 86.1637 348.548C86.1132 348.548 86.0632 348.538 86.0166 348.519C85.97 348.499 85.9277 348.471 85.892 348.435L84.265 346.807C84.1931 346.735 84.1527 346.637 84.1527 346.535C84.1527 346.434 84.1931 346.336 84.265 346.264H84.2643ZM81.0318 346.107C81.1097 346.041 81.2103 346.01 81.3116 346.018C81.4129 346.027 81.5066 346.076 81.5721 346.154L84.5329 349.681C84.5654 349.719 84.5899 349.764 84.6051 349.812C84.6204 349.86 84.626 349.911 84.6216 349.961C84.6173 350.011 84.6031 350.06 84.5798 350.105C84.5565 350.15 84.5247 350.189 84.4861 350.222C84.4475 350.254 84.4029 350.279 84.3548 350.294C84.3067 350.309 84.2561 350.315 84.2058 350.311C84.1556 350.306 84.1067 350.292 84.0619 350.269C84.0172 350.246 83.9774 350.214 83.945 350.175L80.9842 346.647C80.9188 346.569 80.8871 346.469 80.8958 346.367C80.9046 346.266 80.9532 346.172 81.031 346.107H81.0318ZM80.6251 349.317C80.7084 349.259 80.8115 349.236 80.9117 349.254C81.0118 349.271 81.1009 349.328 81.1592 349.411L82.4807 351.297C82.5391 351.38 82.562 351.483 82.5444 351.584C82.5269 351.684 82.4703 351.773 82.3871 351.831C82.3038 351.89 82.2008 351.912 82.1007 351.895C82.0005 351.877 81.9114 351.821 81.853 351.738L80.5314 349.852C80.4731 349.769 80.4502 349.666 80.4677 349.566C80.4853 349.465 80.5419 349.376 80.6251 349.318V349.317ZM77.4709 348.6C77.559 348.549 77.6637 348.536 77.762 348.562C77.8603 348.588 77.9441 348.653 77.995 348.741L80.2974 352.728C80.3482 352.816 80.362 352.921 80.3357 353.02C80.3094 353.118 80.245 353.202 80.1569 353.253C80.0688 353.303 79.9641 353.317 79.8657 353.291C79.7675 353.265 79.6836 353.2 79.6328 353.112L77.3304 349.124C77.2795 349.036 77.2658 348.932 77.2921 348.833C77.3184 348.735 77.3827 348.651 77.4709 348.6ZM76.5139 351.692C76.6061 351.649 76.7115 351.644 76.8071 351.679C76.9026 351.714 76.9805 351.785 77.0234 351.877L77.9966 353.964C78.0395 354.056 78.044 354.162 78.0092 354.257C77.9743 354.353 77.903 354.431 77.8108 354.474C77.7186 354.516 77.6132 354.521 77.5176 354.486C77.4221 354.451 77.3443 354.38 77.3013 354.288L76.3281 352.201C76.2853 352.109 76.2807 352.003 76.3155 351.908C76.3504 351.812 76.4217 351.735 76.5139 351.692ZM73.5308 350.436C73.5782 350.419 73.6285 350.411 73.6788 350.413C73.7292 350.415 73.7786 350.428 73.8243 350.449C73.87 350.47 73.911 350.5 73.9451 350.537C73.9791 350.575 74.0055 350.618 74.0228 350.665L75.5975 354.994C75.6148 355.041 75.6225 355.092 75.6203 355.142C75.6181 355.192 75.606 355.242 75.5847 355.287C75.5634 355.333 75.5333 355.374 75.4961 355.408C75.459 355.442 75.4155 355.469 75.3681 355.486C75.3207 355.503 75.2704 355.511 75.22 355.509C75.1697 355.506 75.1203 355.494 75.0746 355.473C75.0289 355.452 74.9878 355.422 74.9538 355.384C74.9198 355.347 74.8934 355.304 74.8761 355.256L73.3014 350.928C73.2841 350.881 73.2764 350.83 73.2786 350.78C73.2808 350.73 73.2929 350.68 73.3142 350.634C73.3355 350.589 73.3656 350.548 73.4028 350.514C73.4399 350.48 73.4834 350.453 73.5308 350.436ZM72.0512 353.315C72.1494 353.289 72.254 353.303 72.3421 353.354C72.4301 353.405 72.4944 353.488 72.5209 353.586L73.1172 355.81C73.1303 355.859 73.1337 355.91 73.1272 355.96C73.1207 356.01 73.1044 356.058 73.0792 356.102C73.054 356.145 73.0205 356.184 72.9806 356.214C72.9406 356.245 72.895 356.268 72.8463 356.281C72.7976 356.294 72.7468 356.297 72.6968 356.291C72.6468 356.284 72.5986 356.268 72.5549 356.243C72.5112 356.218 72.4729 356.184 72.4422 356.144C72.4115 356.104 72.3889 356.059 72.3758 356.01L71.7795 353.786C71.7664 353.737 71.763 353.686 71.7695 353.636C71.776 353.586 71.7923 353.538 71.8175 353.495C71.8426 353.451 71.8762 353.413 71.9161 353.382C71.9561 353.351 72.0017 353.329 72.0504 353.315H72.0512ZM69.3306 351.563C69.3802 351.555 69.4311 351.556 69.4804 351.566C69.5296 351.577 69.5762 351.598 69.6176 351.627C69.6589 351.655 69.6942 351.692 69.7213 351.735C69.7484 351.777 69.7669 351.825 69.7757 351.874L70.5746 356.41C70.592 356.51 70.5691 356.613 70.5109 356.696C70.4526 356.779 70.3638 356.836 70.2638 356.853C70.2142 356.862 70.1633 356.861 70.1141 356.85C70.0648 356.839 70.0182 356.819 69.9769 356.79C69.9355 356.761 69.9003 356.725 69.8731 356.682C69.846 356.64 69.8275 356.592 69.8187 356.543L69.0198 352.008C69.011 351.958 69.012 351.907 69.0228 351.858C69.0337 351.809 69.0541 351.762 69.083 351.721C69.1118 351.679 69.1486 351.644 69.191 351.617C69.2335 351.59 69.281 351.571 69.3306 351.563V351.563ZM67.3752 354.141C67.4765 354.132 67.5772 354.164 67.655 354.23C67.7329 354.295 67.7816 354.389 67.7904 354.49L67.9907 356.784C67.9994 356.885 67.9675 356.986 67.902 357.063C67.8365 357.141 67.7428 357.19 67.6415 357.199C67.5402 357.207 67.4397 357.176 67.3618 357.11C67.284 357.045 67.2353 356.951 67.2263 356.85L67.026 354.557C67.0216 354.507 67.0271 354.456 67.0422 354.408C67.0574 354.36 67.0819 354.315 67.1143 354.277C67.1468 354.238 67.1865 354.206 67.2313 354.183C67.276 354.16 67.3249 354.146 67.3752 354.141ZM64.9984 351.943C65.1002 351.943 65.1978 351.984 65.2697 352.056C65.3417 352.128 65.3821 352.225 65.3821 352.327V356.932C65.3821 357.033 65.3417 357.131 65.2697 357.203C65.1978 357.275 65.1002 357.315 64.9984 357.315C64.8966 357.315 64.799 357.275 64.7271 357.203C64.6551 357.131 64.6147 357.033 64.6147 356.932V352.327C64.6147 352.225 64.6551 352.128 64.7271 352.056C64.799 351.984 64.8966 351.943 64.9984 351.943ZM62.6239 354.142C62.7253 354.151 62.8189 354.2 62.8843 354.278C62.9496 354.356 62.9813 354.457 62.9724 354.558L62.7721 356.851C62.7631 356.952 62.7143 357.046 62.6365 357.111C62.5587 357.176 62.4581 357.208 62.3569 357.199C62.2555 357.191 62.1618 357.142 62.0963 357.064C62.0308 356.986 61.999 356.886 62.0077 356.784L62.208 354.491C62.2168 354.39 62.2654 354.296 62.3433 354.231C62.4211 354.165 62.5218 354.133 62.6232 354.142H62.6239ZM60.6693 351.563C60.7189 351.571 60.7663 351.59 60.8088 351.617C60.8513 351.644 60.888 351.679 60.9169 351.721C60.9458 351.762 60.9662 351.809 60.9771 351.858C60.9879 351.907 60.9889 351.958 60.9801 352.008L60.1789 356.543C60.1611 356.643 60.1043 356.732 60.021 356.791C59.9377 356.849 59.8346 356.872 59.7345 356.854C59.6849 356.845 59.6374 356.827 59.5949 356.8C59.5524 356.773 59.5156 356.738 59.4867 356.696C59.4578 356.655 59.4372 356.609 59.4263 356.559C59.4154 356.51 59.4142 356.459 59.4229 356.41L60.2241 351.874C60.2329 351.824 60.2513 351.777 60.2784 351.734C60.3055 351.692 60.3407 351.655 60.3821 351.626C60.4234 351.597 60.4701 351.577 60.5193 351.566C60.5686 351.555 60.6196 351.554 60.6693 351.563ZM57.9471 353.317C57.9959 353.33 58.0416 353.352 58.0817 353.383C58.1217 353.414 58.1553 353.452 58.1806 353.496C58.2058 353.54 58.2222 353.588 58.2287 353.638C58.2353 353.688 58.2319 353.739 58.2188 353.787L57.6225 356.011C57.5961 356.11 57.5318 356.193 57.4437 356.244C57.3557 356.295 57.251 356.309 57.1528 356.282C57.1041 356.269 57.0584 356.247 57.0183 356.216C56.9783 356.185 56.9447 356.147 56.9194 356.104C56.8942 356.06 56.8778 356.012 56.8713 355.962C56.8647 355.911 56.8681 355.861 56.8812 355.812L57.4775 353.588C57.4906 353.539 57.5131 353.494 57.5438 353.454C57.5746 353.414 57.6129 353.38 57.6566 353.355C57.7002 353.33 57.7485 353.313 57.7985 353.307C57.8484 353.3 57.8992 353.304 57.9479 353.317H57.9471ZM56.4683 350.439C56.5638 350.474 56.6416 350.545 56.6846 350.637C56.7276 350.729 56.7323 350.835 56.6978 350.93L55.123 355.258C55.1057 355.305 55.0794 355.349 55.0453 355.386C55.0113 355.423 54.9702 355.453 54.9245 355.474C54.8789 355.496 54.8294 355.508 54.7791 355.51C54.7287 355.512 54.6784 355.505 54.631 355.487C54.5837 355.47 54.5401 355.444 54.503 355.41C54.4658 355.376 54.4357 355.335 54.4144 355.289C54.3931 355.243 54.381 355.194 54.3788 355.143C54.3766 355.093 54.3843 355.043 54.4016 354.995L55.9764 350.669C55.9936 350.621 56.02 350.578 56.054 350.54C56.0881 350.503 56.1291 350.473 56.1748 350.452C56.2205 350.431 56.2699 350.418 56.3203 350.416C56.3706 350.414 56.4209 350.422 56.4683 350.439ZM53.4845 351.693C53.5766 351.736 53.648 351.814 53.6828 351.909C53.7176 352.005 53.7131 352.11 53.6702 352.203L52.6971 354.29C52.6539 354.382 52.5761 354.453 52.4805 354.488C52.385 354.523 52.2796 354.518 52.1875 354.475C52.0953 354.432 52.024 354.354 51.9892 354.259C51.9544 354.163 51.9589 354.058 52.0018 353.965L52.9749 351.878C53.018 351.786 53.0959 351.715 53.1914 351.68C53.287 351.645 53.3924 351.65 53.4845 351.693ZM52.5275 348.602C52.6156 348.653 52.6799 348.737 52.7062 348.835C52.7326 348.933 52.7188 349.038 52.6679 349.126L50.3656 353.114C50.3147 353.202 50.2309 353.266 50.1326 353.292C50.0343 353.319 49.9296 353.305 49.8414 353.254C49.7533 353.203 49.689 353.119 49.6627 353.021C49.6363 352.923 49.6501 352.818 49.701 352.73L52.0033 348.742C52.0542 348.654 52.138 348.59 52.2363 348.563C52.3346 348.537 52.4393 348.551 52.5275 348.602ZM49.3733 349.319C49.4565 349.378 49.5131 349.467 49.5306 349.567C49.5482 349.667 49.5253 349.77 49.4669 349.854L48.1454 351.739C48.0869 351.822 47.9978 351.879 47.8977 351.896C47.7975 351.914 47.6945 351.891 47.6112 351.833C47.5281 351.774 47.4715 351.685 47.4539 351.585C47.4364 351.485 47.4593 351.382 47.5176 351.299L48.8391 349.413C48.8976 349.33 48.9867 349.273 49.0868 349.256C49.187 349.238 49.29 349.261 49.3733 349.319ZM48.9665 346.108C49.0444 346.173 49.0932 346.267 49.1021 346.368C49.1111 346.469 49.0794 346.57 49.0141 346.648L46.0541 350.175C45.9887 350.253 45.8951 350.302 45.7938 350.311C45.6925 350.32 45.5918 350.288 45.5138 350.223C45.4359 350.157 45.3871 350.064 45.3782 349.962C45.3693 349.861 45.401 349.76 45.4662 349.682L48.4263 346.154C48.4917 346.077 48.5854 346.028 48.6867 346.019C48.788 346.01 48.8887 346.042 48.9665 346.108ZM45.7341 346.266C45.806 346.338 45.8464 346.435 45.8464 346.537C45.8464 346.639 45.806 346.736 45.7341 346.808L44.1063 348.437C44.0707 348.473 44.0283 348.501 43.9817 348.52C43.9351 348.54 43.8851 348.55 43.8347 348.55C43.7842 348.55 43.7342 348.54 43.6876 348.52C43.641 348.501 43.5986 348.473 43.563 348.437C43.5272 348.401 43.4989 348.359 43.4796 348.312C43.4602 348.266 43.4503 348.216 43.4503 348.165C43.4503 348.115 43.4602 348.065 43.4796 348.018C43.4989 347.971 43.5272 347.929 43.563 347.893L45.1915 346.266C45.2635 346.195 45.361 346.154 45.4628 346.154C45.5645 346.154 45.6621 346.195 45.7341 346.266V346.266ZM42.6812 342.627C42.7102 342.668 42.7307 342.714 42.7416 342.764C42.7526 342.813 42.7537 342.864 42.7449 342.914C42.7362 342.963 42.7177 343.011 42.6905 343.053C42.6634 343.096 42.6282 343.133 42.5868 343.161L40.7012 344.483C40.6178 344.541 40.5147 344.564 40.4146 344.546C40.3144 344.529 40.2254 344.472 40.1671 344.389C40.1087 344.305 40.0858 344.202 40.1034 344.102C40.1209 344.002 40.1775 343.913 40.2607 343.854L42.1463 342.533C42.2296 342.475 42.3326 342.452 42.4327 342.469C42.5329 342.487 42.622 342.543 42.6804 342.627H42.6812ZM43.398 339.472C43.4489 339.56 43.4627 339.665 43.4363 339.763C43.41 339.862 43.3457 339.946 43.2575 339.996L39.2699 342.299C39.1818 342.35 39.077 342.363 38.9787 342.337C38.8804 342.311 38.7966 342.247 38.7458 342.158C38.6949 342.07 38.6811 341.966 38.7074 341.867C38.7338 341.769 38.7981 341.685 38.8862 341.634L42.8738 339.332C42.962 339.281 43.0667 339.267 43.165 339.294C43.2633 339.32 43.3471 339.384 43.398 339.472ZM40.3067 338.515C40.3496 338.608 40.3541 338.713 40.3193 338.809C40.2845 338.904 40.2132 338.982 40.121 339.025L38.0343 339.998C37.9421 340.041 37.8367 340.045 37.7411 340.011C37.6456 339.976 37.5677 339.904 37.5248 339.812C37.4819 339.72 37.4773 339.615 37.5122 339.519C37.547 339.424 37.6183 339.346 37.7105 339.303L39.7971 338.33C39.8894 338.287 39.9948 338.282 40.0904 338.317C40.1859 338.352 40.2637 338.423 40.3067 338.515ZM41.5607 335.532C41.5953 335.627 41.5906 335.732 41.5476 335.825C41.5046 335.917 41.4268 335.988 41.3313 336.023L37.0044 337.598C36.9089 337.633 36.8035 337.628 36.7114 337.585C36.6193 337.542 36.5481 337.464 36.5133 337.369C36.4786 337.273 36.4832 337.168 36.5261 337.076C36.569 336.984 36.6466 336.913 36.742 336.878L41.0688 335.302C41.1162 335.285 41.1665 335.277 41.2168 335.279C41.2672 335.281 41.3166 335.294 41.3623 335.315C41.408 335.336 41.449 335.366 41.4831 335.403C41.5171 335.441 41.5435 335.484 41.5607 335.532ZM38.6828 334.053C38.7091 334.151 38.6953 334.255 38.6445 334.344C38.5937 334.432 38.5101 334.496 38.4119 334.522L36.1871 335.119C36.0889 335.145 35.9843 335.131 35.8962 335.08C35.8082 335.03 35.7439 334.946 35.7174 334.848C35.7043 334.799 35.7009 334.748 35.7074 334.698C35.7139 334.648 35.7302 334.6 35.7554 334.556C35.7806 334.513 35.8141 334.474 35.854 334.444C35.894 334.413 35.9396 334.39 35.9883 334.377L38.2124 333.781C38.2611 333.768 38.3118 333.764 38.3618 333.771C38.4118 333.777 38.46 333.794 38.5037 333.819C38.5474 333.844 38.5857 333.878 38.6165 333.918C38.6472 333.958 38.6697 334.003 38.6828 334.052V334.053ZM40.4372 331.331C40.446 331.38 40.445 331.431 40.4341 331.48C40.4232 331.53 40.4027 331.576 40.3737 331.618C40.3448 331.659 40.308 331.694 40.2654 331.721C40.2228 331.749 40.1753 331.767 40.1256 331.776L35.59 332.576C35.5404 332.585 35.4895 332.584 35.4403 332.573C35.391 332.562 35.3444 332.542 35.3031 332.513C35.2617 332.484 35.2265 332.447 35.1993 332.405C35.1722 332.362 35.1537 332.315 35.1449 332.265C35.1361 332.216 35.1371 332.165 35.148 332.115C35.1589 332.066 35.1794 332.019 35.2084 331.978C35.2373 331.937 35.2741 331.902 35.3167 331.874C35.3593 331.847 35.4068 331.829 35.4565 331.82L39.9921 331.02C40.0417 331.011 40.0926 331.012 40.1418 331.023C40.1911 331.034 40.2377 331.054 40.279 331.083C40.3204 331.112 40.3556 331.148 40.3828 331.191C40.4099 331.233 40.4284 331.281 40.4372 331.331ZM37.8578 329.377C37.8665 329.478 37.8347 329.579 37.7692 329.657C37.7037 329.734 37.61 329.783 37.5086 329.792L35.2155 329.992C35.1143 330.001 35.0137 329.969 34.9359 329.904C34.8581 329.838 34.8093 329.745 34.8003 329.644C34.7914 329.542 34.8231 329.442 34.8884 329.364C34.9537 329.286 35.0474 329.237 35.1488 329.228L37.4419 329.027C37.4921 329.023 37.5427 329.029 37.5909 329.044C37.639 329.059 37.6836 329.083 37.7222 329.116C37.7609 329.148 37.7927 329.188 37.816 329.233C37.8393 329.277 37.8535 329.326 37.8578 329.377ZM40.0565 327.001C40.0565 327.103 40.0161 327.201 39.9442 327.273C39.8722 327.345 39.7746 327.385 39.6728 327.385H35.0682C34.9664 327.385 34.8688 327.345 34.7968 327.273C34.7249 327.201 34.6844 327.103 34.6844 327.001C34.6844 326.9 34.7249 326.802 34.7968 326.73C34.8688 326.658 34.9664 326.618 35.0682 326.618H39.6728C39.7746 326.618 39.8722 326.658 39.9442 326.73C40.0161 326.802 40.0565 326.9 40.0565 327.001ZM37.8586 324.627C37.8542 324.677 37.84 324.726 37.8168 324.771C37.7935 324.816 37.7616 324.855 37.723 324.888C37.6844 324.92 37.6397 324.945 37.5916 324.96C37.5435 324.975 37.4929 324.981 37.4426 324.976L35.1488 324.775C35.0474 324.766 34.9537 324.717 34.8884 324.639C34.8231 324.561 34.7914 324.46 34.8003 324.359C34.8093 324.258 34.8582 324.164 34.9362 324.099C35.0142 324.033 35.1149 324.002 35.2163 324.011L37.5094 324.211C37.5597 324.215 37.6086 324.23 37.6533 324.253C37.6981 324.276 37.7378 324.308 37.7702 324.347C37.8027 324.385 37.8272 324.43 37.8423 324.478C37.8575 324.526 37.863 324.577 37.8586 324.627ZM40.4357 322.67C40.4179 322.77 40.3611 322.859 40.2778 322.917C40.1945 322.976 40.0914 322.998 39.9913 322.981L35.4565 322.181C35.3564 322.163 35.2674 322.107 35.2092 322.023C35.1509 321.94 35.1281 321.837 35.1457 321.737C35.1635 321.637 35.2202 321.548 35.3036 321.489C35.3869 321.431 35.4899 321.408 35.59 321.426L40.1248 322.225C40.1745 322.234 40.2219 322.252 40.2644 322.279C40.3069 322.306 40.3436 322.342 40.3725 322.383C40.4014 322.424 40.4218 322.471 40.4326 322.52C40.4435 322.569 40.4445 322.62 40.4357 322.67ZM38.6828 319.95C38.6697 319.999 38.6472 320.044 38.6165 320.084C38.5857 320.124 38.5474 320.158 38.5037 320.183C38.46 320.208 38.4118 320.225 38.3618 320.231C38.3118 320.238 38.2611 320.234 38.2124 320.221L35.9891 319.626C35.8908 319.599 35.807 319.535 35.756 319.447C35.7051 319.359 35.6912 319.254 35.7174 319.156C35.7437 319.058 35.8079 318.974 35.896 318.923C35.9841 318.872 36.0888 318.858 36.1871 318.884L38.4111 319.48C38.4599 319.493 38.5056 319.515 38.5457 319.546C38.5857 319.577 38.6193 319.615 38.6446 319.659C38.6698 319.702 38.6862 319.751 38.6927 319.801C38.6993 319.851 38.6959 319.901 38.6828 319.95ZM41.5607 318.471C41.5259 318.566 41.4547 318.644 41.3626 318.687C41.2705 318.73 41.1651 318.735 41.0696 318.7L36.742 317.125C36.6946 317.108 36.6511 317.082 36.6139 317.048C36.5767 317.013 36.5466 316.972 36.5253 316.927C36.504 316.881 36.4919 316.832 36.4897 316.781C36.4875 316.731 36.4952 316.681 36.5125 316.633C36.5297 316.586 36.5561 316.542 36.5901 316.505C36.6242 316.468 36.6652 316.438 36.7109 316.417C36.7566 316.395 36.806 316.383 36.8564 316.381C36.9068 316.379 36.9571 316.387 37.0044 316.404L41.3313 317.979C41.3786 317.996 41.4222 318.022 41.4593 318.056C41.4965 318.09 41.5266 318.131 41.5479 318.177C41.5692 318.223 41.5813 318.272 41.5835 318.322C41.5857 318.373 41.578 318.423 41.5607 318.471ZM40.3067 315.487C40.2637 315.579 40.1859 315.65 40.0904 315.685C39.9948 315.72 39.8894 315.715 39.7971 315.672L37.7097 314.699C37.6177 314.656 37.5465 314.578 37.5118 314.483C37.4772 314.387 37.4818 314.282 37.5248 314.19C37.5677 314.098 37.6456 314.026 37.7411 313.991C37.8367 313.957 37.9421 313.961 38.0343 314.004L40.1218 314.977C40.2138 315.02 40.285 315.098 40.3196 315.194C40.3543 315.289 40.3497 315.395 40.3067 315.487ZM43.398 314.53C43.3471 314.619 43.2633 314.683 43.165 314.709C43.0667 314.736 42.962 314.722 42.8738 314.671L38.8862 312.369C38.7981 312.318 38.7338 312.234 38.7074 312.136C38.6811 312.037 38.6949 311.933 38.7458 311.844C38.7966 311.756 38.8804 311.692 38.9787 311.666C39.077 311.639 39.1818 311.653 39.2699 311.704L43.2575 314.006C43.3457 314.057 43.41 314.141 43.4363 314.239C43.4627 314.338 43.4489 314.442 43.398 314.53ZM42.6812 311.376C42.6522 311.417 42.6154 311.452 42.5729 311.479C42.5303 311.506 42.4828 311.525 42.4331 311.533C42.3835 311.542 42.3326 311.541 42.2833 311.53C42.2341 311.519 42.1875 311.498 42.1463 311.469L40.2607 310.148C40.1775 310.089 40.1209 310 40.1034 309.9C40.0858 309.8 40.1087 309.697 40.1671 309.613C40.2255 309.53 40.3146 309.474 40.4148 309.456C40.5149 309.439 40.6179 309.461 40.7012 309.52L42.5868 310.841C42.6282 310.87 42.6634 310.906 42.6905 310.949C42.7177 310.991 42.7362 311.039 42.7449 311.088C42.7537 311.138 42.7526 311.189 42.7416 311.238C42.7307 311.288 42.7102 311.334 42.6812 311.376ZM45.8922 310.969C45.8268 311.047 45.7332 311.095 45.6319 311.104C45.5306 311.113 45.4299 311.082 45.3519 311.016L41.8247 308.056C41.7468 307.991 41.698 307.897 41.6891 307.796C41.6802 307.695 41.7119 307.594 41.7771 307.516C41.8425 307.438 41.9361 307.389 42.0374 307.38C42.1387 307.372 42.2394 307.403 42.3174 307.468L45.8454 310.428C45.9231 310.494 45.9718 310.588 45.9806 310.689C45.9893 310.79 45.9575 310.891 45.8922 310.969ZM45.7341 307.736C45.6621 307.808 45.5645 307.849 45.4628 307.849C45.361 307.849 45.2635 307.808 45.1915 307.736L43.563 306.109C43.5272 306.073 43.4989 306.031 43.4796 305.984C43.4602 305.937 43.4503 305.887 43.4503 305.837C43.4503 305.786 43.4602 305.736 43.4796 305.69C43.4989 305.643 43.5272 305.601 43.563 305.565C43.5986 305.529 43.641 305.501 43.6876 305.482C43.7342 305.462 43.7842 305.452 43.8347 305.452C43.8851 305.452 43.9351 305.462 43.9817 305.482C44.0283 305.501 44.0707 305.529 44.1063 305.565L45.7333 307.194C45.8052 307.266 45.8457 307.363 45.8457 307.465C45.8457 307.567 45.8052 307.664 45.7333 307.736H45.7341ZM48.9681 307.894C48.9295 307.927 48.8849 307.951 48.8368 307.967C48.7887 307.982 48.7381 307.988 48.6878 307.983C48.6376 307.979 48.5887 307.965 48.5439 307.941C48.4992 307.918 48.4595 307.886 48.427 307.848L45.4662 304.32C45.4338 304.282 45.4092 304.237 45.394 304.189C45.3787 304.141 45.3731 304.09 45.3775 304.04C45.3818 303.99 45.396 303.941 45.4193 303.896C45.4426 303.852 45.4744 303.812 45.5131 303.779C45.5517 303.747 45.5963 303.722 45.6444 303.707C45.6926 303.692 45.7432 303.687 45.7934 303.691C45.8437 303.695 45.8926 303.71 45.9373 303.733C45.982 303.756 46.0217 303.788 46.0541 303.827L49.0149 307.354C49.0802 307.432 49.1118 307.533 49.1029 307.634C49.094 307.735 49.0452 307.829 48.9673 307.894H48.9681ZM49.3733 304.684C49.2899 304.742 49.1868 304.765 49.0867 304.748C48.9865 304.73 48.8975 304.673 48.8391 304.59L47.5176 302.704C47.4593 302.621 47.4364 302.518 47.4539 302.418C47.4715 302.318 47.5281 302.229 47.6112 302.17C47.6945 302.112 47.7975 302.089 47.8977 302.106C47.9978 302.124 48.0869 302.18 48.1454 302.264L49.4669 304.149C49.4959 304.191 49.5165 304.237 49.5275 304.286C49.5385 304.336 49.5397 304.386 49.531 304.436C49.5223 304.486 49.5039 304.533 49.4768 304.576C49.4498 304.618 49.4146 304.655 49.3733 304.684ZM52.5282 305.401C52.4401 305.452 52.3354 305.466 52.2371 305.439C52.1388 305.413 52.055 305.349 52.0041 305.261L49.7018 301.273C49.6509 301.185 49.6371 301.08 49.6634 300.982C49.6898 300.883 49.7541 300.8 49.8422 300.749C49.9303 300.698 50.0351 300.684 50.1334 300.71C50.2317 300.737 50.3155 300.801 50.3664 300.889L52.6687 304.877C52.7196 304.965 52.7334 305.07 52.707 305.168C52.6807 305.266 52.6164 305.35 52.5282 305.401ZM53.4845 302.31C53.3923 302.353 53.2868 302.357 53.1912 302.322C53.0957 302.287 53.0179 302.216 52.9749 302.124L52.0018 300.037C51.9589 299.945 51.9544 299.84 51.9892 299.744C52.024 299.649 52.0953 299.571 52.1875 299.528C52.2797 299.485 52.3852 299.48 52.4807 299.515C52.5763 299.55 52.6541 299.621 52.6971 299.713L53.6702 301.8C53.7131 301.892 53.7176 301.998 53.6828 302.093C53.648 302.189 53.5766 302.267 53.4845 302.31ZM56.4683 303.565C56.4209 303.583 56.3706 303.59 56.3203 303.588C56.2699 303.586 56.2205 303.574 56.1748 303.552C56.1291 303.531 56.0881 303.501 56.054 303.464C56.02 303.427 55.9936 303.383 55.9764 303.336L54.4016 299.007C54.3843 298.96 54.3766 298.91 54.3788 298.859C54.381 298.809 54.3931 298.76 54.4144 298.714C54.4357 298.668 54.4658 298.627 54.503 298.593C54.5401 298.559 54.5837 298.533 54.631 298.515C54.6784 298.498 54.7287 298.49 54.7791 298.493C54.8294 298.495 54.8789 298.507 54.9245 298.528C54.9702 298.55 55.0113 298.58 55.0453 298.617C55.0794 298.654 55.1057 298.698 55.123 298.745L56.6978 303.073C56.715 303.121 56.7227 303.171 56.7205 303.221C56.7184 303.272 56.7063 303.321 56.6849 303.367C56.6636 303.413 56.6335 303.454 56.5964 303.488C56.5592 303.522 56.5157 303.548 56.4683 303.565ZM57.9487 300.685C57.9 300.698 57.8492 300.702 57.7992 300.695C57.7492 300.689 57.701 300.672 57.6573 300.647C57.6136 300.622 57.5753 300.588 57.5446 300.548C57.5139 300.508 57.4913 300.463 57.4782 300.414L56.8819 298.19C56.8688 298.141 56.8654 298.091 56.8719 298.041C56.8784 297.991 56.8947 297.942 56.9199 297.899C56.9451 297.855 56.9786 297.817 57.0186 297.786C57.0585 297.755 57.1042 297.733 57.1528 297.72C57.2015 297.707 57.2523 297.703 57.3023 297.71C57.3523 297.716 57.4005 297.732 57.4442 297.758C57.4879 297.783 57.5262 297.816 57.5569 297.856C57.5877 297.896 57.6102 297.942 57.6233 297.991L58.2196 300.215C58.2459 300.314 58.2321 300.418 58.1813 300.506C58.1305 300.594 58.0468 300.659 57.9487 300.685ZM60.6677 302.438C60.6181 302.447 60.5672 302.446 60.518 302.435C60.4687 302.424 60.4221 302.404 60.3808 302.375C60.3394 302.346 60.3042 302.309 60.277 302.267C60.2499 302.224 60.2314 302.177 60.2226 302.127L59.4237 297.591C59.4063 297.491 59.4292 297.389 59.4875 297.306C59.5457 297.222 59.6346 297.166 59.7345 297.148C59.7842 297.139 59.835 297.14 59.8843 297.151C59.9335 297.162 59.9802 297.182 60.0215 297.211C60.0628 297.24 60.0981 297.277 60.1252 297.319C60.1523 297.362 60.1708 297.409 60.1796 297.459L60.9785 301.994C60.9874 302.043 60.9864 302.094 60.9755 302.143C60.9647 302.193 60.9442 302.239 60.9154 302.281C60.8865 302.322 60.8498 302.357 60.8073 302.384C60.7648 302.411 60.7174 302.43 60.6677 302.439V302.438ZM62.6239 299.86C62.5737 299.864 62.5231 299.859 62.475 299.844C62.4268 299.829 62.3822 299.804 62.3436 299.772C62.3049 299.739 62.2731 299.7 62.2498 299.655C62.2265 299.61 62.2123 299.561 62.208 299.511L62.0077 297.218C61.999 297.116 62.0308 297.016 62.0963 296.938C62.1618 296.86 62.2555 296.811 62.3569 296.803C62.4582 296.794 62.5589 296.826 62.6367 296.891C62.7146 296.957 62.7633 297.05 62.7721 297.152L62.9724 299.444C62.9813 299.545 62.9496 299.646 62.8843 299.724C62.8189 299.802 62.7253 299.851 62.6239 299.86Z" fill="white"/>
        <path d="M62.4253 324.016L88.2374 307.363L64.855 327.031L62.4253 324.016Z" fill="#ED6C60"/>
        <path d="M64.8541 327.031L88.2381 307.369L67.3222 330.075L64.8541 327.031Z" fill="#B73C2F"/>
        <path d="M41.847 346.389L62.4222 324.015L64.855 327.031L41.847 346.389Z" fill="white"/>
        <path d="M41.8463 346.386L64.8542 327.031L67.3254 330.077L41.8463 346.386Z" fill="#C7C7C7"/>
    </g>
    <defs>
        <filter id="filter0_d_1_15" x="19.9402" y="281.94" width="90.1195" height="90.1196" filterUnits="userSpaceOnUse" color-interpolation-filters="sRGB">
            <feFlood flood-opacity="0" result="BackgroundImageFix"/>
            <feColorMatrix in="SourceAlpha" type="matrix" values="0 0 0 0 0 0 0 0 0 0 0 0 0 0 0 0 0 0 127 0" result="hardAlpha"/>
            <feOffset/>
            <feGaussianBlur stdDeviation="3.28904"/>
            <feComposite in2="hardAlpha" operator="out"/>
            <feColorMatrix type="matrix" values="0 0 0 0 0 0 0 0 0 0 0 0 0 0 0 0 0 0 0.25 0"/>
            <feBlend mode="normal" in2="BackgroundImageFix" result="effect1_dropShadow_1_15"/>
            <feBlend mode="normal" in="SourceGraphic" in2="effect1_dropShadow_1_15" result="shape"/>
        </filter>
    </defs>
</svg>
