<svg width="20" height="20" viewBox="0 0 20 20" fill="none" xmlns="http://www.w3.org/2000/svg">
    <path d="M10.0003 13.0833V13.175C10.0003 13.4083 9.81699 13.5917 9.58366 13.5917H2.08366C1.85033 13.5917 1.66699 13.4083 1.66699 13.175V13.0833C1.66699 11.6167 2.03366 11.25 3.51699 11.25H8.15033C9.63366 11.25 10.0003 11.6167 10.0003 13.0833Z" fill="#333333"/>
    <path d="M2.08366 14.425C1.85033 14.425 1.66699 14.6083 1.66699 14.8417V15.675V16.5C1.66699 17.9667 2.03366 18.3333 3.51699 18.3333H8.15033C9.63366 18.3333 10.0003 17.9667 10.0003 16.5V15.675V14.8417C10.0003 14.6083 9.81699 14.425 9.58366 14.425H2.08366Z" fill="#333333"/>
    <path d="M18.3333 12.5C18.3333 15.725 15.725 18.3333 12.5 18.3333L13.375 16.875" stroke="#333333" stroke-width="1.5" stroke-linecap="round" stroke-linejoin="round"/>
    <path d="M1.66699 7.50002C1.66699 4.27502 4.27533 1.66669 7.50033 1.66669L6.62533 3.12502" stroke="#333333" stroke-width="1.5" stroke-linecap="round" stroke-linejoin="round"/>
    <path d="M15.417 9.16669C17.4881 9.16669 19.167 7.48776 19.167 5.41669C19.167 3.34562 17.4881 1.66669 15.417 1.66669C13.3459 1.66669 11.667 3.34562 11.667 5.41669C11.667 7.48776 13.3459 9.16669 15.417 9.16669Z" fill="#333333"/>
</svg>
