<svg width="20" height="20" viewBox="0 0 20 20" fill="none" xmlns="http://www.w3.org/2000/svg">
    <path d="M14 1.66669H11.8333C9.16667 1.66669 7.5 3.33335 7.5 6.00002V9.37502H12.7083C13.05 9.37502 13.3333 9.65835 13.3333 10C13.3333 10.3417 13.05 10.625 12.7083 10.625H7.5V14C7.5 16.6667 9.16667 18.3334 11.8333 18.3334H13.9917C16.6583 18.3334 18.325 16.6667 18.325 14V6.00002C18.3333 3.33335 16.6667 1.66669 14 1.66669Z" fill="#333333"/>
    <path d="M3.8002 9.37497L5.5252 7.64997C5.6502 7.52497 5.70853 7.36664 5.70853 7.2083C5.70853 7.04997 5.6502 6.8833 5.5252 6.76664C5.28353 6.52497 4.88353 6.52497 4.64186 6.76664L1.8502 9.55831C1.60853 9.79997 1.60853 10.2 1.8502 10.4416L4.64186 13.2333C4.88353 13.475 5.28353 13.475 5.5252 13.2333C5.76686 12.9916 5.76686 12.5916 5.5252 12.35L3.8002 10.625H7.5002V9.37497H3.8002Z" fill="#333333"/>
</svg>
