<svg width="20" height="20" viewBox="0 0 20 20" fill="none" xmlns="http://www.w3.org/2000/svg">
    <path d="M14.8078 6.985H18.3337C18.3337 4.15417 16.637 2.5 13.7637 2.5H6.23699C3.36366 2.5 1.66699 4.15417 1.66699 6.94833V13.0517C1.66699 15.8458 3.36366 17.5 6.23699 17.5H13.7637C16.637 17.5 18.3337 15.8458 18.3337 13.0517V12.7908H14.8078C13.1712 12.7908 11.8445 11.4975 11.8445 9.9025C11.8445 8.30667 13.1712 7.01333 14.8078 7.01333V6.985ZM14.8078 8.22667H17.7112C18.0553 8.22667 18.3337 8.49833 18.3337 8.83333V10.9425C18.3297 11.1049 18.2624 11.2593 18.1461 11.3727C18.0297 11.4861 17.8736 11.5494 17.7112 11.5492H14.8753C14.047 11.56 13.322 11.0075 13.1345 10.22C13.0882 9.97815 13.0966 9.72901 13.159 9.49081C13.2215 9.25261 13.3364 9.03139 13.4953 8.84333C13.6571 8.65223 13.8581 8.49822 14.0848 8.39181C14.3114 8.28539 14.5583 8.22907 14.8087 8.22667H14.8078ZM14.9337 10.4442H15.2078C15.3746 10.4462 15.5353 10.3819 15.6546 10.2655C15.774 10.1491 15.8423 9.99006 15.8445 9.82333C15.8435 9.74071 15.8263 9.65909 15.7937 9.58313C15.7612 9.50717 15.714 9.43836 15.6549 9.38063C15.5958 9.3229 15.5259 9.27738 15.4492 9.24668C15.3725 9.21597 15.2905 9.20068 15.2078 9.20167H14.9337C14.7662 9.1995 14.6046 9.26325 14.4837 9.37917C14.4247 9.43563 14.3778 9.50341 14.3458 9.57845C14.3137 9.65348 14.2971 9.73423 14.297 9.81583C14.297 10.16 14.5803 10.4408 14.9337 10.4442ZM5.61533 6.985H10.3187C10.4014 6.9861 10.4835 6.97089 10.5603 6.94023C10.6371 6.90957 10.7071 6.86407 10.7663 6.80634C10.8255 6.7486 10.8728 6.67975 10.9053 6.60374C10.9379 6.52772 10.9552 6.44603 10.9562 6.36333C10.9551 6.28071 10.9377 6.19911 10.9051 6.12319C10.8725 6.04727 10.8252 5.97852 10.766 5.92087C10.7068 5.86322 10.6368 5.81779 10.5601 5.78719C10.4833 5.75658 10.4013 5.7414 10.3187 5.7425H5.61533C5.44959 5.74026 5.28966 5.80351 5.1703 5.91851C5.05093 6.03351 4.98176 6.19096 4.97783 6.35667C4.97783 6.70083 5.26199 6.98167 5.61533 6.985Z" fill="#333333"/>
</svg>
